<?xml version="1.0" standalone="no"?>
<!DOCTYPE svg PUBLIC "-//W3C//DTD SVG 20010904//EN"
 "http://www.w3.org/TR/2001/REC-SVG-20010904/DTD/svg10.dtd">
<svg version="1.0" xmlns="http://www.w3.org/2000/svg"
 width="657.000000pt" height="586.000000pt" viewBox="0 0 657.000000 586.000000"
 preserveAspectRatio="xMidYMid meet">

<g transform="translate(0.000000,586.000000) scale(0.100000,-0.100000)"
fill="#000000" stroke="none">
<path d="M1105 5636 c-86 -21 -125 -51 -125 -95 0 -22 43 -70 226 -256 125
-127 243 -249 262 -273 l35 -43 -23 -77 c-52 -174 -59 -188 -98 -204 -40 -17
-227 -78 -239 -78 -4 0 -129 122 -278 270 -289 287 -300 295 -344 251 -11 -11
-32 -57 -47 -103 -21 -68 -27 -108 -31 -218 -5 -123 -3 -145 20 -232 31 -115
72 -209 127 -289 22 -32 40 -63 40 -69 0 -5 -21 -31 -46 -57 -73 -76 -94 -107
-120 -180 -23 -67 -24 -72 -24 -464 0 -439 0 -436 64 -498 26 -26 50 -38 93
-46 l58 -12 5 -819 c4 -575 8 -828 16 -850 18 -48 33 -75 78 -134 38 -51 41
-61 48 -140 12 -153 64 -270 119 -270 14 0 63 41 144 120 l122 120 269 0 c321
0 339 -2 353 -40 7 -21 5 -34 -7 -52 -8 -12 -117 -125 -241 -251 -124 -125
-230 -239 -236 -253 -23 -63 56 -112 215 -134 142 -20 299 4 458 69 236 95
434 326 507 589 l18 62 765 -2 766 -3 22 -75 c42 -148 105 -255 219 -371 216
-219 491 -314 768 -266 143 25 210 69 190 124 -4 12 -112 126 -239 255 -127
128 -238 245 -247 259 -13 20 -15 32 -8 51 13 34 53 38 372 38 l256 0 104
-106 c109 -111 148 -139 179 -129 45 14 79 111 89 252 7 101 7 101 47 145 22
24 54 71 70 103 l29 60 5 824 5 824 58 14 c73 16 111 43 140 96 21 41 22 53
25 365 5 504 -10 585 -133 716 -30 33 -55 64 -55 69 0 6 13 31 30 56 42 67
104 206 124 279 68 250 6 592 -107 592 -20 0 -86 -60 -291 -265 -146 -146
-270 -265 -275 -265 -10 0 -132 37 -225 69 l-50 16 -43 135 c-23 74 -43 137
-43 139 0 2 117 122 260 266 241 243 260 264 260 297 0 41 -18 61 -80 85 -37
14 -80 17 -250 18 l-205 0 -94 -33 c-134 -47 -238 -112 -339 -211 -150 -149
-229 -299 -254 -484 -7 -57 -7 -95 1 -135 14 -72 14 -204 -1 -254 -11 -39 -84
-119 -130 -145 -35 -19 -76 -16 -88 6 -6 12 -10 93 -10 195 0 157 -2 181 -21
220 -33 71 -84 123 -154 156 l-63 30 -610 0 c-430 0 -619 -3 -639 -11 -112
-45 -163 -90 -206 -179 -18 -39 -22 -69 -26 -235 l-6 -190 -24 -3 c-40 -6 -67
6 -118 53 -64 56 -80 105 -64 190 31 165 2 380 -72 536 -109 230 -330 412
-582 478 -65 17 -107 21 -239 20 -91 0 -183 -6 -211 -13z m322 -137 c170 -23
309 -93 428 -213 92 -94 145 -178 182 -291 21 -66 26 -100 27 -195 0 -63 -3
-159 -8 -212 -15 -163 -87 -76 886 -1073 l225 -230 -56 -62 c-31 -35 -61 -63
-67 -63 -6 0 -203 196 -439 435 -393 400 -430 435 -460 435 -39 0 -75 -37 -75
-77 0 -32 -2 -30 670 -716 96 -98 178 -184 182 -191 4 -8 -16 -35 -57 -76
l-64 -63 -163 169 c-89 93 -284 293 -432 444 -508 517 -492 503 -598 531 -39
11 -61 10 -143 -6 -321 -60 -643 105 -798 410 -53 105 -71 190 -72 327 0 69 4
130 8 134 4 5 110 -94 235 -218 125 -124 237 -231 249 -237 35 -18 52 -14 234
45 118 39 180 65 200 83 22 20 40 64 83 201 31 96 56 189 56 207 0 27 -17 51
-104 145 -57 62 -158 167 -225 233 -82 81 -117 122 -108 127 17 11 113 10 204
-3z m3927 3 c2 -4 -48 -62 -112 -127 -300 -307 -332 -343 -332 -371 0 -25 97
-334 122 -389 13 -30 63 -53 198 -94 58 -18 122 -39 143 -47 20 -7 57 -14 81
-14 43 0 44 0 274 232 127 128 235 229 239 224 4 -4 9 -41 11 -82 12 -224 -84
-467 -238 -606 -178 -161 -413 -228 -636 -182 -44 9 -96 14 -120 10 -95 -13
-116 -31 -542 -460 -362 -365 -1101 -1119 -1467 -1496 -72 -74 -205 -211 -297
-305 -311 -319 -323 -337 -314 -470 3 -44 8 -121 12 -170 18 -260 -142 -536
-385 -663 -111 -58 -176 -74 -315 -80 l-130 -5 203 214 c112 118 211 224 219
237 8 13 14 35 14 50 -2 52 -120 384 -144 407 -13 13 -69 37 -128 55 -58 17
-138 43 -178 57 -43 14 -84 22 -98 19 -27 -7 -36 -15 -287 -274 -143 -148
-189 -190 -193 -177 -4 9 -4 74 -1 143 5 133 22 201 75 307 69 138 213 276
353 338 109 48 181 59 370 55 l175 -3 56 34 c39 23 184 165 474 460 230 234
675 687 989 1006 687 698 1010 1032 1036 1071 10 16 27 53 36 82 15 46 15 62
4 127 -7 41 -12 117 -12 169 1 366 271 667 642 715 86 11 197 13 203 3z
m-1467 -673 c35 -13 70 -45 91 -84 21 -39 31 -337 12 -360 -11 -13 -107 -15
-711 -15 l-699 0 -6 25 c-3 14 -4 91 -2 173 4 156 11 184 60 229 12 12 34 26
48 32 36 14 1170 14 1207 0z m193 -616 c0 -5 -180 -190 -400 -413 l-399 -405
-143 145 c-336 340 -648 663 -648 671 0 5 357 9 795 9 437 0 795 -3 795 -7z
m-3256 -170 c83 -62 189 -110 303 -139 88 -23 111 -25 228 -20 72 3 153 8 182
12 46 5 56 3 96 -24 24 -17 75 -64 113 -105 38 -41 192 -201 342 -355 150
-154 269 -282 265 -284 -4 -2 -80 -2 -169 0 l-161 3 -7 117 c-8 133 -23 175
-76 210 -34 23 -38 23 -270 20 l-235 -3 -37 -28 c-20 -15 -40 -36 -44 -45 -5
-9 -11 -73 -14 -142 l-5 -125 -365 0 -365 0 -8 60 c-4 33 -6 209 -5 391 l3
330 30 59 c32 62 107 131 128 118 7 -4 39 -27 71 -50z m5062 13 c21 -18 50
-55 64 -82 l25 -49 3 -391 c3 -348 1 -392 -13 -398 -11 -4 -575 -9 -722 -6
-10 0 -13 30 -13 116 0 131 -14 171 -74 212 -31 21 -41 22 -263 22 -222 0
-231 -1 -263 -22 -58 -40 -70 -77 -70 -210 l0 -117 -166 -3 c-91 -2 -168 1
-171 5 -4 7 123 140 573 594 170 172 170 173 215 173 24 0 60 -5 79 -11 19 -6
87 -11 150 -11 94 0 133 4 215 26 116 31 239 88 310 145 28 22 57 40 66 40 8
1 33 -14 55 -33z m-4028 -1033 l-3 -308 -180 0 -180 0 -3 308 -2 307 185 0
185 0 -2 -307z m3222 3 c0 -268 -2 -305 -16 -310 -9 -3 -89 -6 -179 -6 -139 0
-164 2 -169 16 -8 21 -8 589 1 597 3 4 87 7 185 7 l178 0 0 -304z m-3740 -206
c6 -152 13 -181 51 -217 39 -35 93 -43 299 -43 236 0 263 8 301 86 21 44 24
63 24 174 1 69 4 131 9 138 5 9 68 12 253 12 l246 0 86 -84 85 -85 -64 -68
c-36 -37 -209 -215 -385 -395 -229 -234 -331 -332 -359 -343 -34 -15 -52 -15
-139 -5 -54 6 -118 9 -141 5 -163 -23 -238 -45 -355 -105 -168 -84 -335 -276
-400 -460 -9 -25 -20 -47 -26 -50 -10 -5 -20 1551 -10 1578 3 10 61 12 262 10
l258 -3 5 -145z m3220 -7 c6 -168 12 -188 81 -228 30 -18 56 -20 219 -23 199
-4 271 5 315 39 50 40 59 73 62 219 1 74 2 138 3 143 0 4 116 6 258 5 l257 -3
0 -792 c0 -455 -4 -793 -9 -794 -5 0 -21 31 -36 68 -107 265 -301 436 -587
515 -66 18 -106 22 -253 23 -142 0 -181 4 -205 17 -16 9 -82 70 -145 135 -63
65 -231 236 -372 379 -142 144 -258 267 -258 275 0 7 37 51 82 96 l83 83 250
-2 250 -3 5 -152z m-564 -365 c127 -128 298 -303 382 -388 92 -95 173 -169
209 -190 l58 -35 173 3 c148 2 185 -1 255 -19 247 -63 431 -240 513 -494 20
-62 27 -108 31 -207 4 -73 2 -128 -3 -128 -5 0 -110 101 -234 225 -123 124
-233 228 -243 231 -11 3 -38 -1 -60 -9 -23 -9 -109 -36 -190 -62 -134 -42
-150 -49 -168 -78 -10 -18 -46 -113 -78 -211 -48 -145 -58 -184 -50 -204 12
-31 50 -73 266 -295 90 -92 163 -169 163 -172 0 -3 -42 -5 -93 -5 -268 0 -524
157 -650 399 -73 138 -97 272 -76 423 16 121 14 169 -11 224 -27 62 -28 64
-419 463 -190 195 -351 361 -358 371 -10 14 -2 26 52 80 l64 64 287 -292 c158
-161 299 -299 315 -308 25 -13 33 -13 64 0 45 19 56 57 29 103 -10 18 -143
159 -294 314 -151 155 -276 288 -278 295 -3 10 102 134 113 134 0 0 105 -105
231 -232z m-345 -629 c194 -198 365 -376 379 -396 28 -39 30 -70 15 -206 l-8
-77 -751 2 -751 3 -9 65 c-4 36 -9 93 -10 126 -1 59 0 63 44 110 114 126 717
734 727 734 6 0 170 -162 364 -361z m1575 -677 c-6 -5 -399 -2 -405 4 -3 2 4
16 15 31 17 22 43 34 133 60 62 17 116 34 119 38 3 3 36 -25 74 -62 37 -37 66
-69 64 -71z m-3670 109 c32 -10 85 -26 117 -35 43 -13 61 -23 69 -41 6 -14 9
-27 7 -30 -4 -3 -342 -8 -404 -5 -16 0 118 130 136 130 8 0 42 -9 75 -19z"/>
<path d="M4038 3673 c-194 -197 -461 -468 -593 -603 -132 -135 -375 -382 -541
-550 -474 -481 -528 -538 -552 -584 -20 -36 -22 -48 -12 -66 14 -27 55 -43 91
-35 19 4 174 156 510 498 266 271 707 719 980 997 553 562 579 591 579 626 0
35 -42 74 -80 74 -26 0 -72 -43 -382 -357z"/>
</g>
</svg>
